<svg width="30" height="17" viewBox="0 0 30 17" fill="none" xmlns="http://www.w3.org/2000/svg">
<path fill-rule="evenodd" clip-rule="evenodd" d="M20.4733 0.379288C20.816 0.0193503 21.3857 0.00545569 21.7457 0.348253L29.6207 7.84825C29.799 8.01812 29.9 8.25367 29.9 8.49998C29.9 8.74629 29.799 8.98183 29.6207 9.1517L21.7457 16.6517C21.3857 16.9945 20.816 16.9806 20.4733 16.6207C20.1305 16.2607 20.1443 15.691 20.5043 15.3483L26.75 9.39998H0.999976C0.502919 9.39998 0.0999756 8.99703 0.0999756 8.49998C0.0999756 8.00292 0.502919 7.59998 0.999976 7.59998H26.75L20.5043 1.6517C20.1443 1.3089 20.1305 0.739225 20.4733 0.379288Z" fill="white"/>
</svg>
