<svg width="17" height="22" viewBox="0 0 17 22" fill="none" xmlns="http://www.w3.org/2000/svg">
<path fill-rule="evenodd" clip-rule="evenodd" d="M8.49998 1.9001C6.78789 1.9001 5.39998 3.28802 5.39998 5.0001V7.1001H11.6V5.0001C11.6 3.28802 10.2121 1.9001 8.49998 1.9001ZM13.4 7.1001V5.0001C13.4 2.2939 11.2062 0.100098 8.49998 0.100098C5.79378 0.100098 3.59998 2.2939 3.59998 5.0001V7.1001H1.99998C0.950635 7.1001 0.0999756 7.95076 0.0999756 9.0001V20.0001C0.0999756 21.0494 0.950634 21.9001 1.99998 21.9001H15C16.0493 21.9001 16.9 21.0494 16.9 20.0001V9.0001C16.9 7.95076 16.0493 7.1001 15 7.1001H13.4ZM1.99998 8.9001C1.94475 8.9001 1.89998 8.94487 1.89998 9.0001V20.0001C1.89998 20.0553 1.94475 20.1001 1.99998 20.1001H15C15.0552 20.1001 15.1 20.0553 15.1 20.0001V9.0001C15.1 8.94487 15.0552 8.9001 15 8.9001H1.99998Z" fill="white"/>
</svg>
