<svg width="24" height="22" viewBox="0 0 24 22" fill="none" xmlns="http://www.w3.org/2000/svg">
<path fill-rule="evenodd" clip-rule="evenodd" d="M11.9997 18.9675C7.06116 16.1557 4.29333 13.3488 2.95206 10.8956C1.58377 8.39302 1.69306 6.26093 2.46817 4.73373C4.05229 1.61252 8.55571 0.616676 11.2926 4.09304L11.9997 4.9912L12.7068 4.09309C15.4442 0.616603 19.9478 1.61258 21.5319 4.73373C22.307 6.26091 22.4163 8.39299 21.0479 10.8956C19.7065 13.3488 16.9385 16.1557 11.9997 18.9675ZM11.9998 2.18539C8.33754 -1.44128 2.85578 -0.00718069 0.863064 3.91909C-0.216728 6.04661 -0.23998 8.80952 1.37271 11.7591C2.97338 14.6868 6.17676 17.797 11.5629 20.7869L11.9997 21.0293L12.4365 20.7869C17.8229 17.7971 21.0264 14.6868 22.6272 11.7592C24.24 8.80955 24.2168 6.04663 23.137 3.91909C21.1443 -0.00724673 15.6623 -1.44123 11.9998 2.18539Z" fill="white"/>
</svg>
