<svg width="15" height="22" viewBox="0 0 15 22" fill="none" xmlns="http://www.w3.org/2000/svg">
<path fill-rule="evenodd" clip-rule="evenodd" d="M7.49998 1.9001C5.62514 1.9001 4.06664 3.46538 4.06664 5.44454C4.06664 7.4237 5.62514 8.98899 7.49998 8.98899C9.37481 8.98899 10.9333 7.4237 10.9333 5.44454C10.9333 3.46538 9.37481 1.9001 7.49998 1.9001ZM10.9554 9.4588C12.0481 8.47583 12.7333 7.03627 12.7333 5.44454C12.7333 2.5145 10.4116 0.100098 7.49998 0.100098C4.58834 0.100098 2.26664 2.5145 2.26664 5.44454C2.26664 7.03627 2.95181 8.47583 4.04451 9.4588C1.7232 10.4201 0.0999756 12.7496 0.0999756 15.4445V19.889C0.0999756 20.9781 0.9666 21.9001 2.08331 21.9001H12.9166C14.0334 21.9001 14.9 20.9781 14.9 19.889V15.4445C14.9 12.7496 13.2767 10.4201 10.9554 9.4588ZM6.41664 10.789C3.9435 10.789 1.89998 12.8517 1.89998 15.4445V19.889C1.89998 20.0272 2.0034 20.1001 2.08331 20.1001H12.9166C12.9966 20.1001 13.1 20.0272 13.1 19.889V15.4445C13.1 12.8517 11.0565 10.789 8.58331 10.789H6.41664Z" fill="white"/>
</svg>
