<?xml version="1.0" encoding="utf-8"?><svg viewBox="0 0 258 53" xmlns="http://www.w3.org/2000/svg" xmlns:xlink="http://www.w3.org/1999/xlink"><style>:root>svg{display:none}:root>svg:target{display:block}</style><svg viewBox="0 0 30 17" id="arrow-right" xmlns="http://www.w3.org/2000/svg"><path fill-rule="evenodd" clip-rule="evenodd" d="M20.473.38a.9.9 0 011.273-.032l7.875 7.5a.9.9 0 010 1.304l-7.875 7.5a.9.9 0 01-1.242-1.304L26.75 9.4H1a.9.9 0 010-1.8h25.75l-6.246-5.948a.9.9 0 01-.03-1.273z"/></svg><svg viewBox="0 0 17 22" id="cart" xmlns="http://www.w3.org/2000/svg"><path fill-rule="evenodd" clip-rule="evenodd" d="M8.5 1.9A3.1 3.1 0 005.4 5v2.1h6.2V5a3.1 3.1 0 00-3.1-3.1zm4.9 5.2V5a4.9 4.9 0 10-9.8 0v2.1H2A1.9 1.9 0 00.1 9v11c0 1.05.85 1.9 1.9 1.9h13a1.9 1.9 0 001.9-1.9V9A1.9 1.9 0 0015 7.1h-1.6zM2 8.9a.1.1 0 00-.1.1v11a.1.1 0 00.1.1h13a.1.1 0 00.1-.1V9a.1.1 0 00-.1-.1H2z"/></svg><svg viewBox="0 0 24 24" id="close" xmlns="http://www.w3.org/2000/svg"><path d="M23.954 21.03l-9.184-9.095 9.092-9.174L21.03-.046l-9.09 9.179L2.764.045l-2.81 2.81L9.14 11.96.045 21.144l2.81 2.81 9.112-9.192 9.18 9.1z"/></svg><svg viewBox="0 0 35 35" id="facebook" xmlns="http://www.w3.org/2000/svg"><path fill-rule="evenodd" clip-rule="evenodd" d="M17.5 0C7.835 0 0 7.835 0 17.5S7.835 35 17.5 35 35 27.165 35 17.5 27.165 0 17.5 0zm1.824 18.269v9.52h-3.94v-9.52h-1.967v-3.28h1.968v-1.97c0-2.677 1.111-4.269 4.268-4.269h2.629v3.281h-1.643c-1.23 0-1.31.459-1.31 1.315l-.005 1.642H22.3l-.348 3.28h-2.628z"/></svg><svg viewBox="0 0 24 22" id="favorite" xmlns="http://www.w3.org/2000/svg"><path fill-rule="evenodd" clip-rule="evenodd" d="M12 18.968c-4.939-2.812-7.707-5.62-9.048-8.072-1.368-2.503-1.259-4.635-.484-6.162 1.584-3.121 6.088-4.117 8.825-.641l.707.898.707-.898c2.737-3.476 7.24-2.48 8.825.64.775 1.528.884 3.66-.484 6.163-1.341 2.453-4.11 5.26-9.048 8.072zm0-16.783C8.338-1.44 2.856-.007.863 3.92c-1.08 2.128-1.103 4.89.51 7.84 1.6 2.928 4.804 6.038 10.19 9.028l.437.242.437-.242c5.386-2.99 8.59-6.1 10.19-9.028 1.613-2.95 1.59-5.712.51-7.84C21.144-.007 15.662-1.44 12 2.185z"/></svg><svg viewBox="0 0 35 35" id="instagram" xmlns="http://www.w3.org/2000/svg"><path fill-rule="evenodd" clip-rule="evenodd" d="M17.5 0C7.835 0 0 7.835 0 17.5S7.835 35 17.5 35 35 27.165 35 17.5 27.165 0 17.5 0zm-3.848 8.223c.996-.045 1.314-.056 3.849-.056h-.003c2.535 0 2.852.01 3.848.056.994.045 1.672.203 2.267.434a4.56 4.56 0 011.653 1.076c.52.519.838 1.04 1.077 1.653.23.594.387 1.272.434 2.266.045.995.056 1.313.056 3.848s-.011 2.852-.056 3.848c-.047.993-.204 1.671-.434 2.265a4.582 4.582 0 01-1.077 1.653 4.566 4.566 0 01-1.652 1.078c-.594.23-1.273.388-2.267.433-.995.045-1.312.056-3.847.056s-2.853-.01-3.848-.056c-.994-.045-1.672-.203-2.266-.434a4.57 4.57 0 01-1.653-1.077 4.573 4.573 0 01-1.076-1.653c-.231-.594-.388-1.272-.434-2.265-.045-.996-.056-1.313-.056-3.848s.011-2.853.056-3.849c.045-.993.202-1.671.433-2.265a4.582 4.582 0 011.078-1.653 4.57 4.57 0 011.653-1.076c.593-.231 1.272-.389 2.265-.434z"/><path fill-rule="evenodd" clip-rule="evenodd" d="M16.664 9.849h.837c2.492 0 2.787.009 3.771.053.91.042 1.404.194 1.733.322.436.169.746.371 1.073.698.327.326.529.638.698 1.073.128.329.28.823.322 1.733.044.984.054 1.28.054 3.77s-.01 2.786-.054 3.77c-.042.91-.194 1.404-.322 1.733a2.887 2.887 0 01-.698 1.072 2.886 2.886 0 01-1.073.698c-.328.128-.823.28-1.733.322-.983.044-1.279.054-3.771.054s-2.788-.01-3.772-.054c-.91-.042-1.403-.194-1.733-.322a2.891 2.891 0 01-1.073-.698A2.893 2.893 0 0110.225 23c-.128-.329-.28-.823-.322-1.733-.045-.983-.054-1.279-.054-3.771 0-2.493.01-2.787.054-3.77.042-.91.194-1.405.322-1.734a2.89 2.89 0 01.698-1.073 2.897 2.897 0 011.073-.698c.33-.129.823-.28 1.733-.322.862-.04 1.195-.05 2.935-.053v.003zm5.819 1.55a1.12 1.12 0 100 2.24 1.12 1.12 0 000-2.241zM12.708 17.5a4.793 4.793 0 119.585 0 4.793 4.793 0 01-9.585 0z"/><path fill-rule="evenodd" clip-rule="evenodd" d="M17.501 14.389a3.111 3.111 0 110 6.222 3.111 3.111 0 010-6.222z"/></svg><svg viewBox="0 0 258 53" id="logo" xmlns="http://www.w3.org/2000/svg"><path d="M35.468 37.738h.626v.39h-8.486v-.351h.586a1.49 1.49 0 001.134-.506c.313-.364.444-.753.391-1.168l-1.76-19.587-8.212 18.185c-.73 1.583-1.173 2.907-1.33 3.972h-.39L8.014 17.062l-1.682 19.04c-.052.416.078.805.391 1.169.313.337.678.506 1.095.506h.626v.35H.858v-.389h.626c.73 0 1.356-.22 1.877-.662.548-.441.873-1.038.978-1.791l2.933-24.96h.39l10.912 23.48 10.676-23.48h.352l3.011 24.96c.13 1.038.652 1.765 1.565 2.18.39.182.82.273 1.29.273zm10.516-21.961c2.008-1.039 4.21-1.558 6.61-1.558 2.424 0 4.64.52 6.648 1.558 2.007 1.012 3.598 2.453 4.77 4.322 1.2 1.869 1.8 3.985 1.8 6.347 0 2.362-.6 4.478-1.8 6.347-1.172 1.869-2.763 3.323-4.77 4.361-2.008 1.012-4.067 1.519-6.18 1.519-2.111 0-3.975-.299-5.592-.896-1.616-.597-3.024-1.428-4.223-2.492-1.174-1.064-2.112-2.362-2.816-3.894-.678-1.531-1.017-3.323-1.017-5.373 0-2.077.587-4.05 1.76-5.92a12.07 12.07 0 014.81-4.321zm-.743 18.651c1.981 2.051 4.432 3.077 7.352 3.077s5.371-1.026 7.353-3.077c1.981-2.076 2.972-4.737 2.972-7.982s-.991-5.893-2.972-7.944c-1.982-2.076-4.433-3.115-7.353-3.115s-5.37 1.039-7.352 3.115c-1.955 2.051-2.933 4.699-2.933 7.944s.978 5.906 2.933 7.982zm32.202-18.651c2.007-1.039 4.21-1.558 6.609-1.558 2.425 0 4.64.52 6.648 1.558 2.008 1.012 3.598 2.453 4.771 4.322 1.2 1.869 1.8 3.985 1.8 6.347 0 2.362-.6 4.478-1.8 6.347-1.173 1.869-2.763 3.323-4.77 4.361-2.008 1.012-4.068 1.519-6.18 1.519s-3.976-.299-5.592-.896c-1.617-.597-3.024-1.428-4.224-2.492-1.173-1.064-2.111-2.362-2.815-3.894-.679-1.531-1.018-3.323-1.018-5.373 0-2.077.587-4.05 1.76-5.92a12.07 12.07 0 014.81-4.321zM76.7 34.428c1.981 2.051 4.432 3.077 7.352 3.077s5.37-1.026 7.352-3.077c1.982-2.076 2.972-4.737 2.972-7.982s-.99-5.893-2.972-7.944c-1.981-2.076-4.432-3.115-7.352-3.115s-5.37 1.039-7.352 3.115c-1.956 2.051-2.933 4.699-2.933 7.944s.978 5.906 2.933 7.982zm51.916-19.274a2.1 2.1 0 00-1.486.584 1.859 1.859 0 00-.665 1.363v16.587c0 1.506.091 2.934.274 4.284l.078.7h-.352l-20.336-19.196v16.237c0 .571.209 1.052.626 1.441.417.39.925.584 1.525.584h.665v.39h-7.391v-.39h.664c.6 0 1.109-.195 1.526-.584.417-.39.625-.87.625-1.44V19.047c0-1.584-.091-2.999-.273-4.245l-.079-.623.431.04 20.296 19.04V17.1a1.994 1.994 0 00-.704-1.362 2.103 2.103 0 00-1.486-.584h-.665v-.39h7.392v.39h-.665zm24.571-3.077h-2.503v23.208c0 .675.235 1.259.704 1.752.495.468 1.095.701 1.799.701h.469l.039.39h-8.564v-.39h.508c.678 0 1.252-.233 1.721-.7a2.401 2.401 0 00.782-1.714V13.713A2.401 2.401 0 00147.36 12a2.284 2.284 0 00-1.721-.74h-.508v-.39h10.559c2.372 0 4.236.662 5.592 1.986 1.356 1.298 2.034 2.998 2.034 5.101 0 2.077-.652 3.881-1.956 5.413-1.277 1.505-2.842 2.258-4.693 2.258.391.182.848.545 1.369 1.09.548.52 1.03 1.065 1.447 1.636 2.242 3.193 3.702 5.166 4.38 5.919.678.726 1.16 1.233 1.447 1.518.287.26.6.52.939.779.339.26.678.467 1.016.623a5.53 5.53 0 002.425.545v.39h-2.151c-1.121 0-2.164-.195-3.128-.585-.965-.415-1.695-.83-2.19-1.246a27.84 27.84 0 01-1.252-1.246c-.339-.415-1.303-1.765-2.894-4.05-1.59-2.284-2.516-3.582-2.776-3.893a14.776 14.776 0 00-.822-.974c-.834-.882-1.668-1.324-2.503-1.324v-.389c.209.026.483.039.822.039.339 0 .756-.013 1.251-.039 3.233-.078 5.267-1.428 6.101-4.05.156-.519.235-.999.235-1.44v-.896c-.053-1.74-.509-3.141-1.369-4.205-.861-1.065-2.021-1.636-3.481-1.714a58.237 58.237 0 00-2.346-.039zm18.751 25.661c.704 0 1.317-.208 1.838-.623.522-.415.782-.909.782-1.48V17.256c0-.57-.26-1.064-.782-1.48-.521-.415-1.147-.622-1.877-.622h-.508v-.39h8.838v.39h-.508c-.704 0-1.317.194-1.838.584-.496.39-.77.87-.822 1.44v18.496c.026.571.3 1.065.822 1.48.521.39 1.134.584 1.838.584h.508l.039.39h-8.877v-.39h.547zm37.775-22.584h-.313c-.573 0-1.134.194-1.681.584-.548.363-1.017.921-1.408 1.674-5.684 12.149-8.643 18.509-8.877 19.08-.444 1.09-.678 1.817-.704 2.18h-.352l-9.66-21.221c-.756-1.532-1.76-2.297-3.011-2.297h-.313v-.39h8.017v.39h-.313c-.495 0-.873.181-1.134.545-.235.337-.352.649-.352.934 0 .286.039.584.117.896l7.001 16.977 7.195-16.9c.131-.337.196-.648.196-.934 0-.311-.13-.636-.391-.973-.261-.364-.652-.545-1.173-.545h-.274v-.39h7.43v.39zm3.641 22.584c.626 0 1.147-.195 1.564-.584.444-.415.678-.909.704-1.48V17.178c0-.57-.221-1.05-.665-1.44-.443-.39-.977-.584-1.603-.584h-.547v-.39h11.419c1.069 0 2.007-.078 2.816-.233.808-.156 1.329-.286 1.564-.39v4.44l-.43-.04v-.584a1.98 1.98 0 00-.548-1.402c-.365-.389-.834-.584-1.408-.584h-8.134v9.89h6.687c.522 0 .913-.155 1.174-.466.286-.312.43-.701.43-1.169v-.506h.43v5.452h-.43v-.507c0-.726-.274-1.22-.821-1.48a2.775 2.775 0 00-.665-.155h-6.805v9.89h6.14c1.199 0 2.203-.207 3.011-.623.834-.415 1.46-.908 1.877-1.48.444-.57.887-1.323 1.33-2.258h.391l-2.151 5.569h-15.877v-.39h.547zm28.905-21.767h-2.072v19.664c.026.805.391 1.415 1.095 1.83.339.182.717.273 1.134.273h.508l.039.39h-8.017v-.39h.548c.599 0 1.108-.195 1.525-.584.443-.415.665-.909.665-1.48V17.178c0-.57-.222-1.05-.665-1.44-.417-.39-.926-.584-1.525-.584h-.548v-.39h9.816c2.451 0 4.38.558 5.788 1.675 1.434 1.116 2.151 2.582 2.151 4.4 0 1.817-.574 3.335-1.721 4.556-1.147 1.22-2.607 1.92-4.38 2.102.834.364 1.838 1.376 3.011 3.037-.026 0 .418.572 1.33 1.714a301.895 301.895 0 002.229 2.687 26.526 26.526 0 001.408 1.44c.965.909 2.073 1.363 3.324 1.363v.39h-1.212c-2.06 0-3.676-.403-4.849-1.208a11.434 11.434 0 01-2.425-2.22c-.156-.207-.821-1.115-1.995-2.725a302.075 302.075 0 00-1.838-2.609c-1.407-1.739-2.724-2.609-3.949-2.609v-.389c3.05 0 4.888-.156 5.514-.467.86-.442 1.447-.909 1.76-1.402a6.324 6.324 0 00.977-3.427c0-1.583-.469-2.803-1.408-3.66-.938-.857-2.203-1.324-3.793-1.402a66.515 66.515 0 00-2.425-.039z"/><path d="M97.274 26.124c-.36-10.682-9.929-12.497-14.409-12.322 1.797.558 10.385 2.094 11.355 12.322.776 8.183-7.246 12.02-11.355 12.916 5.127-.023 14.768-2.234 14.41-12.916z"/></svg><svg viewBox="0 0 15 22" id="user" xmlns="http://www.w3.org/2000/svg"><path fill-rule="evenodd" clip-rule="evenodd" d="M7.5 1.9c-1.875 0-3.433 1.565-3.433 3.545 0 1.979 1.558 3.544 3.433 3.544 1.875 0 3.433-1.565 3.433-3.544 0-1.98-1.558-3.545-3.433-3.545zm3.455 7.559a5.39 5.39 0 001.778-4.014C12.733 2.515 10.412.1 7.5.1 4.588.1 2.267 2.514 2.267 5.445a5.39 5.39 0 001.778 4.014C1.723 10.42.1 12.749.1 15.445v4.444c0 1.09.867 2.011 1.983 2.011h10.834c1.116 0 1.983-.922 1.983-2.011v-4.444c0-2.695-1.623-5.025-3.945-5.986zm-4.538 1.33c-2.474 0-4.517 2.063-4.517 4.655v4.445c0 .138.103.211.183.211h10.834c.08 0 .183-.073.183-.211v-4.444c0-2.593-2.043-4.656-4.517-4.656H6.417z"/></svg></svg>